<?xml version="1.0" standalone="no"?>
<!DOCTYPE svg PUBLIC "-//W3C//DTD SVG 20010904//EN"
  "http://www.w3.org/TR/2001/REC-SVG-20010904/DTD/svg10.dtd">
<svg version="1.0" xmlns="http://www.w3.org/2000/svg"
  width="700.000000pt" height="700.000000pt" viewBox="0 0 700.000000 700.000000"
  preserveAspectRatio="xMidYMid meet">
<metadata>
Created by potrace 1.14, written by Peter Selinger 2001-2017
</metadata>
<g transform="translate(0.000000,700.000000) scale(0.100000,-0.100000)"
fill="#000000" stroke="none">
<path d="M3355 5864 c1 -624 -2 -1134 -6 -1134 -4 0 -12 19 -17 43 -6 23 -18
71 -27 107 -9 36 -18 72 -20 81 -2 8 -92 371 -200 805 -108 434 -198 794 -199
799 -1 6 -22 89 -45 187 -44 176 -44 176 -70 172 -56 -10 -236 -57 -244 -63
-4 -4 33 -171 83 -372 50 -200 93 -374 96 -385 2 -12 35 -147 74 -300 39 -154
72 -288 74 -299 2 -11 30 -121 61 -245 31 -124 58 -232 60 -240 3 -12 73 -303
91 -375 6 -22 -41 60 -136 240 -35 66 -80 152 -100 190 -21 39 -59 111 -85
160 -87 165 -223 422 -275 520 -35 66 -70 132 -185 350 -74 141 -153 290 -217
409 -32 60 -58 112 -58 116 0 3 -5 11 -12 18 -9 9 -38 -2 -127 -49 -64 -33
-120 -64 -125 -69 -4 -4 10 -41 32 -82 22 -40 65 -122 97 -183 32 -60 70 -132
85 -160 33 -61 97 -181 180 -340 34 -66 75 -142 90 -170 35 -63 101 -189 175
-330 32 -60 77 -146 100 -190 23 -44 66 -125 95 -180 68 -130 146 -276 182
-343 30 -56 21 -59 -21 -9 -14 16 -30 34 -35 41 -21 21 -332 371 -357 400 -13
16 -34 38 -45 50 -19 18 -126 139 -344 385 -36 41 -70 79 -76 85 -5 6 -68 76
-139 156 -71 80 -145 163 -166 185 -20 22 -96 107 -169 189 -73 83 -138 155
-144 162 -8 9 -27 -2 -76 -44 -95 -82 -140 -126 -140 -136 0 -7 120 -147 150
-176 3 -3 61 -68 130 -145 68 -77 138 -156 156 -175 17 -19 73 -82 124 -140
51 -58 96 -107 99 -110 3 -3 21 -23 40 -45 18 -22 52 -60 75 -85 22 -25 77
-86 121 -135 44 -50 96 -108 116 -130 76 -84 317 -354 374 -420 33 -37 67 -75
75 -84 34 -36 64 -74 55 -68 -5 3 -42 27 -81 54 -39 26 -124 84 -190 129 -65
45 -200 137 -299 205 -99 68 -220 151 -268 184 -48 33 -163 112 -255 175 -93
63 -264 180 -381 260 -116 80 -256 175 -309 212 -53 37 -102 68 -108 68 -10 0
-98 -117 -142 -192 l-23 -36 158 -108 c148 -100 192 -131 390 -267 65 -45
1055 -722 1286 -880 38 -26 66 -47 62 -47 -3 0 -288 106 -633 236 -345 130
-656 247 -692 260 -36 13 -236 89 -445 168 -209 79 -383 141 -387 137 -12 -11
-101 -251 -95 -257 3 -3 94 -39 204 -80 109 -41 232 -87 273 -103 41 -16 174
-66 295 -111 121 -45 229 -86 240 -91 18 -8 162 -62 345 -130 41 -15 237 -89
435 -163 333 -126 355 -136 295 -131 -36 3 -74 7 -85 9 -11 2 -49 7 -85 11
-36 3 -76 8 -90 10 -14 1 -50 6 -80 9 -30 4 -107 13 -170 21 -63 8 -140 17
-170 20 -30 4 -66 8 -80 10 -14 2 -50 6 -80 10 -30 3 -125 15 -210 25 -85 11
-180 22 -210 25 -30 3 -66 8 -80 10 -14 2 -50 7 -80 10 -54 5 -102 11 -170 20
-19 3 -55 7 -80 10 -25 3 -61 8 -80 10 -19 3 -57 7 -85 10 -27 3 -66 8 -85 10
-19 3 -60 8 -90 11 -30 3 -84 9 -120 14 -101 15 -96 16 -104 -42 -27 -211 -27
-231 -1 -233 11 -1 47 -5 80 -9 33 -4 78 -9 100 -12 22 -2 56 -6 75 -9 74 -9
117 -14 170 -20 30 -3 66 -8 80 -10 14 -2 50 -7 80 -10 30 -3 66 -8 80 -10 14
-2 52 -7 85 -10 33 -4 76 -9 95 -11 19 -3 53 -7 75 -9 22 -3 56 -7 75 -10 30
-4 287 -35 415 -50 22 -2 63 -7 90 -10 28 -3 66 -8 85 -10 109 -14 281 -35
320 -39 105 -12 146 -17 168 -21 13 -2 53 -7 90 -11 98 -9 101 -18 7 -28 -80
-9 -144 -17 -175 -21 -14 -2 -50 -6 -80 -10 -30 -3 -125 -15 -210 -25 -85 -10
-180 -22 -210 -25 -49 -5 -78 -9 -160 -20 -14 -2 -54 -6 -90 -10 -36 -3 -72
-8 -80 -10 -8 -2 -44 -7 -80 -10 -36 -4 -76 -8 -90 -10 -14 -2 -47 -6 -75 -10
-27 -3 -66 -8 -85 -10 -19 -3 -57 -7 -85 -10 -27 -3 -66 -7 -85 -10 -19 -3
-55 -7 -80 -10 -25 -3 -61 -8 -80 -10 -19 -2 -57 -7 -85 -10 -27 -3 -66 -7
-85 -10 -19 -2 -59 -7 -89 -10 -30 -4 -61 -8 -70 -10 -9 -1 -50 -6 -91 -11
-41 -4 -78 -9 -82 -10 -5 -1 -13 -2 -18 -3 -6 0 -9 -18 -5 -43 2 -24 7 -65 10
-93 12 -112 18 -145 29 -145 7 0 66 7 131 15 66 8 139 17 163 20 23 3 63 7 90
10 26 3 61 8 77 10 17 2 71 9 120 15 50 6 106 12 125 15 19 2 58 7 85 10 73 8
137 16 165 21 14 2 54 6 90 10 36 3 74 8 85 10 11 2 45 6 75 9 30 3 66 7 80
10 14 2 54 7 90 10 36 4 72 8 80 10 8 2 42 6 75 10 33 3 112 12 175 20 63 8
138 17 165 20 71 8 136 16 163 20 13 2 53 7 90 10 37 4 87 11 110 15 24 4 40
4 35 0 -4 -5 -298 -117 -653 -250 -355 -133 -654 -245 -665 -250 -11 -5 -47
-19 -80 -30 -33 -12 -69 -25 -80 -30 -11 -5 -163 -63 -338 -129 -175 -66 -321
-122 -324 -125 -6 -5 83 -246 95 -257 4 -4 160 51 347 122 187 72 358 136 380
143 43 14 316 117 375 141 98 40 1048 395 1056 395 4 0 -33 -27 -82 -60 -49
-33 -114 -77 -144 -98 -30 -21 -131 -90 -225 -154 -263 -179 -575 -393 -625
-428 -59 -41 -385 -264 -606 -415 -97 -66 -185 -127 -196 -135 -22 -17 -30 -3
118 -217 l22 -33 98 67 c55 37 140 95 189 129 50 35 128 89 175 121 47 32 193
131 325 222 132 90 310 212 395 270 85 58 181 123 212 146 31 22 92 64 135 93
43 29 134 92 203 139 182 125 181 124 115 48 -33 -38 -67 -77 -75 -85 -8 -9
-29 -32 -45 -51 -17 -19 -105 -117 -196 -219 -91 -102 -178 -200 -194 -219
-17 -18 -39 -43 -50 -55 -66 -74 -162 -181 -175 -196 -8 -9 -47 -53 -86 -96
-39 -43 -115 -128 -169 -189 -54 -60 -112 -126 -129 -145 -18 -19 -68 -75
-111 -125 -44 -49 -82 -92 -85 -95 -3 -3 -40 -44 -83 -92 l-77 -86 107 -96
107 -95 20 23 c12 12 53 57 91 101 39 43 75 83 80 89 8 9 140 157 180 202 6 6
40 45 76 85 36 41 110 124 164 184 54 61 128 144 165 185 37 41 89 100 115
130 27 30 65 73 84 94 45 49 42 45 131 146 41 47 87 98 103 115 15 16 94 105
175 197 81 91 149 165 150 163 2 -2 -12 -32 -31 -67 -43 -78 -149 -279 -277
-523 -35 -66 -79 -149 -98 -185 -19 -36 -61 -117 -94 -180 -33 -63 -68 -128
-78 -145 -9 -16 -46 -84 -80 -150 -34 -66 -79 -151 -100 -190 -21 -38 -63
-119 -95 -180 -86 -164 -154 -293 -187 -354 -16 -30 -25 -58 -21 -62 4 -4 60
-35 124 -69 l117 -61 20 33 c10 18 54 101 97 183 43 83 81 155 85 160 4 6 38
69 75 140 37 72 107 204 155 295 48 91 111 210 140 265 29 55 72 137 96 183
80 149 131 246 184 347 29 55 78 147 109 205 31 58 70 131 86 162 16 31 31 56
32 54 2 -1 -47 -203 -107 -447 -109 -439 -120 -484 -121 -494 0 -2 -5 -19 -10
-37 -6 -18 -12 -43 -15 -54 -2 -12 -40 -165 -84 -340 -44 -176 -82 -328 -84
-339 -2 -11 -32 -130 -66 -264 -33 -134 -57 -247 -53 -251 9 -8 264 -73 268
-68 2 3 111 435 120 478 2 8 35 141 74 295 38 154 124 501 190 770 116 466
171 685 175 685 1 0 2 -515 1 -1145 0 -1144 0 -1146 20 -1151 12 -3 77 -4 145
-2 l124 3 0 1152 c0 634 1 1151 2 1150 3 -3 74 -284 85 -332 4 -22 83 -339
174 -705 92 -366 168 -673 170 -682 2 -9 22 -90 45 -180 23 -90 44 -172 46
-182 11 -56 37 -156 41 -156 16 0 260 64 266 70 4 4 -17 108 -48 231 -31 123
-58 231 -60 239 -5 22 -210 849 -305 1230 -45 179 -83 334 -86 346 -2 11 -13
56 -23 99 -11 44 -19 80 -17 82 1 2 15 -21 29 -49 15 -29 49 -93 75 -143 26
-49 79 -148 116 -220 38 -71 88 -166 111 -210 87 -162 219 -412 263 -495 24
-47 61 -116 82 -155 20 -38 62 -117 92 -175 185 -351 287 -542 305 -572 4 -8
201 88 236 114 17 13 15 19 -29 103 -25 50 -59 113 -74 140 -15 28 -58 109
-95 180 -37 72 -75 144 -85 160 -9 17 -48 89 -85 160 -103 199 -165 316 -190
360 -12 22 -57 108 -100 190 -43 83 -86 164 -95 180 -10 17 -50 93 -90 170
-40 77 -104 198 -142 269 -38 71 -67 130 -66 131 2 2 37 -35 78 -82 41 -47 84
-95 95 -107 11 -12 49 -55 85 -95 36 -41 70 -79 75 -85 6 -6 64 -72 130 -146
66 -74 122 -137 125 -140 3 -3 59 -66 125 -140 66 -74 125 -139 131 -145 5 -5
44 -48 85 -95 40 -47 79 -90 84 -96 6 -6 42 -46 80 -89 39 -43 75 -83 80 -89
6 -6 46 -52 90 -101 44 -49 90 -101 103 -115 12 -14 55 -62 95 -106 l72 -81
85 72 c47 41 95 84 107 97 l21 23 -175 195 c-96 107 -187 209 -201 225 -15 17
-61 68 -102 115 -41 47 -78 87 -81 90 -3 3 -61 68 -130 145 -68 77 -138 156
-156 175 -17 19 -41 46 -53 60 -12 14 -49 56 -83 94 -34 38 -66 74 -72 80 -5
6 -48 54 -95 106 -47 52 -89 100 -95 106 -5 6 -26 29 -45 50 -19 22 -69 77
-110 124 -41 47 -87 98 -102 115 -15 16 -25 31 -23 33 2 2 34 -19 72 -46 37
-27 203 -141 368 -254 165 -113 329 -225 363 -249 35 -24 74 -51 87 -59 31
-21 196 -133 632 -433 l373 -255 61 86 c109 155 103 143 88 157 -8 7 -151 106
-319 220 -168 115 -332 227 -365 250 -33 23 -159 109 -280 192 -607 415 -821
562 -831 571 -6 5 -24 17 -41 25 -16 9 -36 23 -44 33 -13 16 -12 16 6 6 11 -7
142 -57 290 -113 149 -55 414 -155 590 -221 176 -67 347 -131 380 -143 33 -12
139 -52 235 -88 96 -37 281 -107 410 -156 129 -49 238 -86 242 -82 11 9 87
215 91 241 2 18 -9 26 -63 46 -36 14 -69 26 -75 28 -5 2 -23 8 -40 15 -16 7
-52 21 -80 30 -48 18 -1120 421 -1620 610 -132 50 -245 91 -252 91 -6 0 -15 5
-19 12 -4 6 -3 9 2 6 5 -3 36 -8 69 -12 33 -3 69 -8 80 -10 11 -2 54 -7 95
-11 41 -3 82 -8 90 -10 8 -2 42 -7 75 -10 33 -3 74 -8 90 -10 17 -3 50 -7 75
-9 25 -3 59 -7 75 -10 17 -2 57 -7 90 -11 33 -3 74 -8 90 -10 17 -2 73 -9 125
-15 52 -6 109 -13 125 -15 17 -2 53 -7 80 -10 28 -3 64 -8 80 -10 66 -8 122
-15 165 -19 25 -3 99 -12 165 -20 113 -14 143 -18 263 -31 26 -3 63 -8 82 -10
64 -8 274 -34 328 -40 52 -6 52 -6 54 22 0 15 2 33 3 38 8 54 15 109 21 157 6
55 5 56 -23 62 -28 5 -315 41 -408 51 -27 2 -68 7 -90 10 -22 2 -80 9 -130 15
-49 6 -119 15 -155 20 -36 6 -90 12 -120 15 -30 3 -64 7 -75 9 -12 2 -50 7
-86 10 -36 4 -76 8 -90 10 -13 3 -51 7 -84 11 -33 4 -73 8 -90 10 -16 2 -52 7
-80 10 -27 3 -63 8 -80 10 -16 3 -52 7 -80 10 -27 3 -63 8 -80 10 -16 2 -55 6
-85 9 -61 7 -209 25 -255 31 -16 2 -57 7 -90 11 -33 4 -69 8 -80 10 -11 1 -35
3 -52 3 -30 1 -49 17 -20 18 11 0 98 10 162 18 17 2 73 9 125 15 52 6 106 13
120 15 14 2 48 6 75 9 70 8 132 15 185 22 25 3 63 7 85 10 22 2 51 7 65 9 14
2 52 7 85 10 33 3 71 8 85 10 14 2 50 7 80 10 30 3 71 7 90 10 19 3 55 7 79
10 24 2 62 7 85 10 22 3 57 7 76 10 19 3 62 7 95 11 33 3 67 7 75 9 8 2 44 7
80 10 36 4 76 8 90 10 14 2 126 15 250 30 298 34 272 27 266 78 -3 23 -10 86
-17 140 l-12 98 -56 -6 c-31 -4 -67 -8 -81 -10 -14 -1 -50 -6 -80 -9 -30 -4
-91 -11 -135 -17 -44 -5 -96 -12 -115 -14 -48 -6 -107 -13 -155 -19 -75 -10
-210 -26 -260 -31 -27 -3 -66 -7 -85 -10 -19 -3 -59 -7 -89 -11 -30 -3 -62 -7
-72 -9 -10 -2 -49 -7 -86 -10 -78 -8 -99 -10 -168 -20 -83 -11 -107 -14 -165
-20 -30 -3 -66 -8 -80 -10 -14 -2 -54 -7 -90 -10 -36 -4 -74 -9 -85 -11 -11
-2 -45 -6 -75 -9 -30 -3 -66 -8 -80 -10 -14 -2 -52 -7 -85 -10 -33 -4 -71 -8
-85 -10 -14 -2 -56 -6 -95 -10 l-70 -6 45 16 c25 9 54 20 65 25 15 7 1973 744
2033 765 6 2 12 8 12 13 0 13 -90 246 -98 253 -4 3 -86 -24 -182 -61 -210 -80
-189 -72 -325 -122 -60 -22 -119 -44 -130 -49 -11 -4 -141 -54 -290 -110 -148
-55 -485 -181 -747 -280 -262 -98 -479 -179 -483 -179 -3 0 38 30 92 67 54 36
262 179 463 317 418 286 386 264 915 625 220 151 406 279 413 285 12 12 -13
56 -120 208 l-26 38 -303 -208 c-167 -114 -349 -239 -404 -277 -116 -79 -131
-90 -730 -500 -247 -169 -457 -313 -465 -318 -16 -12 7 16 82 98 25 28 61 68
79 90 19 22 39 45 45 50 6 6 82 91 170 190 87 99 161 182 165 185 3 3 79 88
169 190 91 102 167 187 170 190 3 3 59 66 124 140 66 74 127 142 135 151 9 9
43 47 76 84 33 38 67 76 75 84 9 9 66 73 128 143 l113 127 -107 95 c-81 71
-110 91 -118 83 -7 -7 -68 -75 -136 -152 -69 -77 -129 -145 -135 -151 -13 -14
-146 -162 -165 -184 -8 -9 -42 -48 -75 -85 -33 -37 -71 -80 -85 -95 -45 -49
-93 -103 -255 -285 -88 -99 -164 -185 -170 -191 -5 -6 -39 -44 -75 -84 -36
-40 -78 -87 -93 -104 -15 -17 -96 -108 -180 -203 -84 -94 -154 -170 -156 -168
-2 2 10 28 27 57 16 29 58 107 92 173 35 66 80 152 100 190 20 39 62 117 92
175 31 58 70 132 88 165 18 33 59 112 92 175 33 63 73 138 88 165 15 28 52 97
82 155 168 319 206 391 288 545 105 195 120 227 115 236 -4 5 -21 16 -38 24
-18 8 -70 35 -117 59 l-85 45 -15 -21 c-8 -12 -41 -71 -73 -132 -32 -61 -82
-156 -112 -211 -29 -55 -74 -140 -100 -190 -26 -49 -85 -160 -130 -245 -45
-85 -108 -204 -140 -265 -111 -211 -158 -300 -195 -370 -65 -122 -120 -226
-198 -375 -85 -163 -122 -228 -122 -219 0 5 231 941 257 1039 3 14 7 30 8 35
2 6 37 150 80 320 42 171 78 317 80 325 2 8 31 125 65 259 33 134 57 248 53
252 -7 6 -248 69 -265 69 -3 0 -9 -17 -13 -37 -5 -21 -9 -42 -10 -48 -2 -5
-12 -44 -23 -85 -12 -41 -23 -86 -26 -100 -2 -14 -57 -234 -121 -490 -64 -256
-118 -472 -120 -480 -2 -8 -54 -217 -115 -465 -62 -247 -114 -459 -116 -469
-2 -11 -7 -23 -12 -28 -4 -4 -8 497 -7 1115 0 617 -1 1130 -3 1139 -4 15 -20
17 -146 16 l-141 0 0 -1134z"/>
</g>
</svg>
