<svg xmlns="http://www.w3.org/2000/svg"><style>:root svg:not(:target){display:none}</style><svg viewBox="0 0 39 39" fill="none" id="arrow-icon"><path fill-rule="evenodd" clip-rule="evenodd" d="m28.26 32.5-27.38-27.38 4.24-4.24 27.38 27.38v-18.32h6v28.56h-28.56v-6h18.32Z" fill="#fff"></path></svg><svg viewBox="0 0 213 213" fill="none" id="cycle-icon"><path d="m158.28 14.01-4.8-2.5-39.16 74.29 20.16-81.47-5.26-1.3-20.17 81.48v-83.91h-5.42v83.9l-20.17-81.46-5.26 1.29 20.16 81.47-39.16-74.3-4.8 2.51 39.16 74.3-55.88-62.8-4.06 3.57 55.88 62.81-69.35-47.66-3.08 4.44 69.35 47.67-78.79-29.76-1.92 5.05 78.79 29.76-83.65-10.12-.66 5.36 83.65 10.12-83.65 10.11.66 5.36 83.65-10.11-78.8 29.75 1.93 5.05 78.79-29.75-69.35 47.66 3.08 4.45 69.35-47.67-55.88 62.81 4.06 3.58 55.88-62.8-39.16 74.3 4.8 2.5 39.16-74.3-20.16 81.47 5.26 1.3 20.17-81.47v83.9h5.42v-83.9l20.17 81.47 5.26-1.3-20.16-81.47 39.16 74.3 4.8-2.5-39.16-74.3 55.88 62.8 4.06-3.58-55.88-62.8 69.35 47.66 3.08-4.45-69.35-47.66 78.8 29.75 1.91-5.05-78.79-29.75 83.66 10.11.65-5.36-83.65-10.11 83.65-10.12-.66-5.36-83.65 10.12 78.8-29.76-1.93-5.05-78.79 29.76 69.35-47.67-3.08-4.44-69.35 47.66 55.88-62.8-4.06-3.59-55.88 62.81 39.16-74.3Z" fill="#fff"></path></svg><svg viewBox="0 0 93 15" fill="none" id="cycle-media-logo"><path d="M86.76 2.2h1.63l3.9 9.8h-1.62l-.67-1.66h-4.85l-.66 1.66h-1.63l3.9-9.8Zm.82 1.92-1.84 4.73h3.67l-1.83-4.73Zm-7.65 7.88v-9.8h1.64v9.8h-1.64Zm-6.38-1.48a3.3 3.3 0 0 0 3.28-3.41c0-1.83-1.3-3.42-3.28-3.42h-1.6v6.83h1.6Zm0-8.32a4.92 4.92 0 0 1 4.97 4.9c0 2.73-2.22 4.9-4.97 4.9h-3.23v-9.8h3.23Zm-11.15 0h6.68v1.51h-5.05v2.17h3.82v1.52h-3.82v3.09h5.05v1.51h-6.69v-9.8Zm-2.66 0h.87v9.8h-1.63v-6.86l-3.48 4.22-3.47-4.22v6.86h-1.63v-9.8h.87l4.23 5.11 4.24-5.1Zm-20.72 0h6.7v1.51h-5.06v2.17h3.82v1.52h-3.82v3.09h5.06v1.51h-6.7v-9.8Zm-7.85-.01h1.64v8.3h5.05v1.51h-6.69v-9.81Zm-2.51 5.89 1.55.48a4.86 4.86 0 0 1-4.75 3.44 4.91 4.91 0 1 1 .01-9.81c2.17 0 4.1 1.32 4.74 3.45l-1.55.47a3.3 3.3 0 0 0-6.49.98 3.31 3.31 0 0 0 6.5.99Zm-10.92-5.88h1.84l-3.42 5.96v3.84h-1.64v-3.84l-3.4-5.96h1.83l2.4 4.32 2.39-4.32Zm-9 5.88 1.56.48a4.86 4.86 0 0 1-4.75 3.44 4.91 4.91 0 1 1 0-9.81 4.87 4.87 0 0 1 4.75 3.45l-1.56.47a3.29 3.29 0 0 0-6.48.98c0 1.85 1.36 3.43 3.29 3.43a3.3 3.3 0 0 0 3.2-2.44Z" fill="#fff"></path></svg><svg viewBox="0 0 17 16" fill="none" id="list-arrow-icon"><path fill-rule="evenodd" clip-rule="evenodd" d="M5.96 3.72h7.02v7.02h-1.06v-5.2l-7.3 7.29-.75-.76 7.3-7.3h-5.21v-1.05Z" fill="#fff"></path></svg></svg>