<svg xmlns="http://www.w3.org/2000/svg"><style>:root svg:not(:target){display:none}</style><svg viewBox="0 0 39 39" fill="none" id="arrow-icon"><path fill-rule="evenodd" clip-rule="evenodd" d="m28.26 32.5-27.38-27.38 4.24-4.24 27.38 27.38v-18.32h6v28.56h-28.56v-6h18.32Z" fill="#fff"></path></svg><svg viewBox="0 0 212 212" fill="none" id="cycle-icon"><path d="M106 0c-1.46 0-2.9.03-4.35.09v70.32l-16.96-68.28c-2.86.58-5.68 1.27-8.45 2.08l16.95 68.27-32.89-62.22c-2.63 1.25-5.2 2.6-7.7 4.05l32.89 62.19-46.86-52.51a104.44 104.44 0 0 0-6.5 5.76l46.84 52.48-58.07-39.8a106.3 106.3 0 0 0-4.92 7.14l58.04 39.77-65.9-24.81a105.04 105.04 0 0 0-3.07 8.09l65.88 24.8-69.9-8.43c-.46 2.83-.8 5.7-1.03 8.59l69.89 8.42-69.89 8.42c.23 2.9.57 5.76 1.03 8.58l69.9-8.42-65.88 24.8c.91 2.75 1.94 5.45 3.07 8.1l65.9-24.82-58.04 39.77c1.54 2.45 3.18 4.83 4.92 7.13l58.07-39.79-46.83 52.48c2.08 2 4.24 3.93 6.49 5.76l46.85-52.5-32.87 62.18c2.5 1.45 5.06 2.8 7.69 4.05l32.9-62.22-16.96 68.27c2.77.8 5.6 1.5 8.45 2.08l16.96-68.28v70.32a108.37 108.37 0 0 0 8.7 0v-70.32l16.96 68.28c2.86-.58 5.68-1.27 8.45-2.08l-16.95-68.27 32.9 62.22c2.62-1.25 5.18-2.6 7.68-4.05l-32.87-62.19 46.86 52.5c2.24-1.82 4.4-3.75 6.49-5.75l-46.84-52.48 58.07 39.8c1.74-2.31 3.38-4.7 4.93-7.14l-58.05-39.77 65.9 24.81c1.13-2.64 2.16-5.34 3.07-8.09l-65.88-24.8 69.9 8.42c.46-2.82.8-5.68 1.03-8.58l-69.88-8.42 69.88-8.42c-.23-2.9-.57-5.76-1.03-8.59l-69.9 8.43 65.88-24.8c-.91-2.75-1.94-5.45-3.07-8.1l-65.9 24.82 58.05-39.77a106.03 106.03 0 0 0-4.93-7.13l-58.07 39.79 46.84-52.48c-2.09-2-4.25-3.93-6.5-5.76l-46.85 52.5 32.87-62.18c-2.5-1.45-5.06-2.8-7.69-4.05l-32.9 62.22 16.96-68.27c-2.77-.8-5.6-1.5-8.45-2.08l-16.96 68.28v-70.32c-1.44-.06-2.9-.09-4.35-.09Z" fill="#fff"></path></svg><svg viewBox="0 0 93 10" fill="none" preserveAspectRatio="xMinYMin meet" id="cycle-media-logo"><path d="M87.51.01h1.62l3.87 9.74h-1.61l-.67-1.65h-4.81l-.66 1.65h-1.62l3.88-9.74Zm.8 1.91-1.82 4.7h3.65l-1.82-4.7Zm-8.01 7.83v-9.74h1.62v9.74h-1.63Zm-6.66-1.47a3.28 3.28 0 0 0 3.26-3.39c0-1.81-1.3-3.4-3.26-3.4h-1.59v6.79h1.6Zm0-8.26a4.89 4.89 0 0 1 4.94 4.87c0 2.7-2.2 4.86-4.94 4.86h-3.21v-9.73h3.21Zm-11.57-.01h6.65v1.51h-5.02v2.15h3.79v1.51h-3.8v3.07h5.03v1.5h-6.65v-9.74Zm-2.58.01h.86v9.73h-1.62v-6.8l-3.45 4.18-3.46-4.2v6.82h-1.62v-9.73h.87l4.2 5.07 4.22-5.07Zm-22.79-.02h6.65v1.51h-5.02v2.16h3.8v1.5h-3.8v3.08h5.02v1.5h-6.65v-9.74Zm-7.64 0h1.63v8.24h4.33v1.5h-5.96v-9.74Zm-3.26 5.85 1.55.48a4.83 4.83 0 0 1-4.72 3.42 4.88 4.88 0 1 1 0-9.75 4.83 4.83 0 0 1 4.72 3.42l-1.54.48a3.27 3.27 0 0 0-6.45.98 3.29 3.29 0 0 0 6.45.97Zm-9.75-5.84h1.83l-3.4 5.92v3.82h-1.63v-3.82l-3.39-5.92h1.83l2.38 4.29 2.38-4.29Zm-7.93 5.84 1.55.48a4.83 4.83 0 0 1-4.72 3.42 4.88 4.88 0 1 1 0-9.75 4.84 4.84 0 0 1 4.72 3.42l-1.55.48a3.27 3.27 0 0 0-6.44.98 3.3 3.3 0 0 0 3.27 3.4c1.52 0 2.75-.96 3.17-2.43Z" fill="#fff"></path></svg><svg viewBox="0 0 132 30" fill="none" id="cycle-text"><path d="M111.75.02h20.25v4.6h-15.28v6.55h11.54v4.59h-11.54v9.35h15.28v4.57h-20.25v-29.66Zm-23.27-.02h4.95v25.09h13.18v4.59h-18.13v-29.68Zm-9.91 17.8 4.7 1.47c-1.82 6.3-7.71 10.4-14.37 10.4-8.38 0-15.08-6.53-15.08-14.82 0-8.2 6.56-14.85 15.1-14.85 6.55 0 12.43 4 14.35 10.42l-4.7 1.45a10.01 10.01 0 0 0-9.65-7.36c-5.69 0-9.97 4.5-9.97 10.34 0 5.58 4.11 10.34 9.97 10.34a9.9 9.9 0 0 0 9.65-7.38Zm-29.71-17.76h5.58l-10.36 18.01v11.63h-4.94v-11.63l-10.32-18h5.56l7.24 13.04 7.24-13.05Zm-24.13 17.76 4.72 1.47c-1.82 6.3-7.72 10.4-14.37 10.4-8.38 0-15.08-6.53-15.08-14.82 0-8.2 6.56-14.85 15.08-14.85 6.57 0 12.45 4 14.37 10.42l-4.72 1.45a10.01 10.01 0 0 0-9.65-7.36c-5.7 0-9.95 4.5-9.95 10.34 0 5.58 4.1 10.34 9.95 10.34a9.9 9.9 0 0 0 9.65-7.38Z" fill="#fff"></path></svg><svg viewBox="0 0 17 16" fill="none" id="list-arrow-icon"><path fill-rule="evenodd" clip-rule="evenodd" d="M5.96 3.72h7.02v7.02h-1.06v-5.2l-7.3 7.29-.75-.76 7.3-7.3h-5.21v-1.05Z" fill="#fff"></path></svg><svg viewBox="0 0 132 31" fill="none" id="media-text"><path d="M115.07 0h4.99l11.94 30.04h-4.97l-2.05-5.09h-14.85l-2.03 5.1h-5l11.97-30.05Zm2.5 5.89-5.64 14.5h11.25l-5.62-14.5Zm-24.77 24.15v-30.04h5.03v30.04h-5.03Zm-20.51-4.54c5.61 0 10.03-4.55 10.03-10.46 0-5.6-4-10.47-10.03-10.47h-4.9v20.93h4.9Zm0-25.48c8.3 0 15.23 6.54 15.23 15.02 0 8.34-6.81 15-15.23 15h-9.91v-30.02h9.9Zm-35.71-.02h20.51v4.65h-15.48v6.64h11.69v4.65h-11.69v9.47h15.48v4.63h-20.5v-30.04Zm-7.94.02h2.66v30.02h-4.99v-21.01l-10.66 12.92-10.66-12.94v21.03h-4.99v-30.02h2.66l12.99 15.65 12.99-15.65Z" fill="#fff"></path></svg></svg>