<svg xmlns="http://www.w3.org/2000/svg" version="1.1" xmlns:xlink="http://www.w3.org/1999/xlink" xmlns:svgjs="http://svgjs.com/svgjs" width="64" height="64"><svg width="64" height="64" viewBox="0 0 64 64" fill="none" xmlns="http://www.w3.org/2000/svg">
<path d="M32 0C31.5599 0 31.1219 0.00882884 30.6861 0.0263175L30.6861 21.2559L25.5679 0.642568C24.7044 0.817655 23.8535 1.0273 23.0167 1.26999L28.1341 21.8802L18.2037 3.09804C17.4113 3.47465 16.6367 3.8827 15.8817 4.32056L25.8068 23.0928L11.6608 7.24221C10.984 7.79541 10.3303 8.37564 9.70137 8.98126L23.8395 24.823L6.3092 12.8114C5.78538 13.5072 5.28935 14.225 4.82274 14.9632L22.3463 26.9703L2.45006 19.4799C2.10944 20.2778 1.8004 21.0923 1.52448 21.9219L21.4142 29.4098L0.311029 26.8662C0.173078 27.719 0.0689331 28.5831 7.5912e-06 29.457L21.0976 32L0 34.5429C0.068923 35.4169 0.173065 36.2809 0.311014 37.1337L21.4142 34.5901L1.52446 42.0781C1.80037 42.9076 2.10942 43.7222 2.45003 44.5201L22.3464 37.0296L4.82272 49.0368C5.28933 49.775 5.78536 50.4928 6.30917 51.1886L23.8394 39.177L9.70132 55.0187C10.3303 55.6243 10.984 56.2046 11.6608 56.7578L25.8068 40.9071L15.8816 59.6794C16.6367 60.1173 17.4112 60.5253 18.2037 60.9019L28.1342 42.1195L23.0167 62.73C23.8535 62.9727 24.7044 63.1824 25.5679 63.3574L30.6861 42.7442L30.6861 63.9737C31.1219 63.9912 31.5599 64 32 64C32.4403 64 32.8785 63.9912 33.3145 63.9737L33.3145 42.7441L38.4327 63.3573C39.2962 63.1822 40.1471 62.9725 40.9839 62.7298L35.8665 42.1196L45.7968 60.9017C46.5893 60.5251 47.3638 60.117 48.1188 59.6791L38.1938 40.9071L52.3396 56.7575C53.0164 56.2043 53.6701 55.624 54.299 55.0184L40.1612 39.177L57.691 51.1883C58.2148 50.4925 58.7109 49.7747 59.1775 49.0365L41.6543 37.0297L61.55 44.5199C61.8906 43.722 62.1997 42.9075 62.4756 42.0779L42.5862 34.5901L63.689 37.1336C63.8269 36.2808 63.9311 35.4168 64 34.5428L42.9033 32L64 29.4571C63.9311 28.5832 63.8269 27.7191 63.689 26.8663L42.5863 29.4099L62.4756 21.9221C62.1997 21.0925 61.8906 20.278 61.55 19.4801L41.6544 26.9702L59.1775 14.9635C58.7109 14.2253 58.2148 13.5075 57.691 12.8117L40.1612 24.823L54.299 8.98161C53.67 8.37598 53.0164 7.79573 52.3396 7.24252L38.1938 23.0929L48.1188 4.32085C47.3638 3.88297 46.5893 3.47491 45.7968 3.09829L35.8666 21.8802L40.984 1.27017C40.1471 1.02746 39.2962 0.817803 38.4327 0.642697L33.3145 21.256L33.3145 0.026344C32.8785 0.00883767 32.4403 0 32 0Z" fill="black"></path>
</svg><style>@media (prefers-color-scheme: light) { :root { filter: none; } }
@media (prefers-color-scheme: dark) { :root { filter: none; } }
</style></svg>