<svg viewBox="0 0 93 10" fill="none" xmlns="http://www.w3.org/2000/svg" preserveAspectRatio="xMinYMin meet"><path d="M87.51.01h1.62l3.87 9.74h-1.61l-.67-1.65h-4.81l-.66 1.65h-1.62l3.88-9.74Zm.8 1.91-1.82 4.7h3.65l-1.82-4.7Zm-8.01 7.83v-9.74h1.62v9.74h-1.63Zm-6.66-1.47a3.28 3.28 0 0 0 3.26-3.39c0-1.81-1.3-3.4-3.26-3.4h-1.59v6.79h1.6Zm0-8.26a4.89 4.89 0 0 1 4.94 4.87c0 2.7-2.2 4.86-4.94 4.86h-3.21v-9.73h3.21Zm-11.57-.01h6.65v1.51h-5.02v2.15h3.79v1.51h-3.8v3.07h5.03v1.5h-6.65v-9.74Zm-2.58.01h.86v9.73h-1.62v-6.8l-3.45 4.18-3.46-4.2v6.82h-1.62v-9.73h.87l4.2 5.07 4.22-5.07Zm-22.79-.02h6.65v1.51h-5.02v2.16h3.8v1.5h-3.8v3.08h5.02v1.5h-6.65v-9.74Zm-7.64 0h1.63v8.24h4.33v1.5h-5.96v-9.74Zm-3.26 5.85 1.55.48a4.83 4.83 0 0 1-4.72 3.42 4.88 4.88 0 1 1 0-9.75 4.83 4.83 0 0 1 4.72 3.42l-1.54.48a3.27 3.27 0 0 0-6.45.98 3.29 3.29 0 0 0 6.45.97Zm-9.75-5.84h1.83l-3.4 5.92v3.82h-1.63v-3.82l-3.39-5.92h1.83l2.38 4.29 2.38-4.29Zm-7.93 5.84 1.55.48a4.83 4.83 0 0 1-4.72 3.42 4.88 4.88 0 1 1 0-9.75 4.84 4.84 0 0 1 4.72 3.42l-1.55.48a3.27 3.27 0 0 0-6.44.98 3.3 3.3 0 0 0 3.27 3.4c1.52 0 2.75-.96 3.17-2.43Z" fill="#fff"/></svg>