<svg viewBox="0 0 213 213" fill="none" xmlns="http://www.w3.org/2000/svg"><path d="m158.28 14.01-4.8-2.5-39.16 74.29 20.16-81.47-5.26-1.3-20.17 81.48v-83.91h-5.42v83.9l-20.17-81.46-5.26 1.29 20.16 81.47-39.16-74.3-4.8 2.51 39.16 74.3-55.88-62.8-4.06 3.57 55.88 62.81-69.35-47.66-3.08 4.44 69.35 47.67-78.79-29.76-1.92 5.05 78.79 29.76-83.65-10.12-.66 5.36 83.65 10.12-83.65 10.11.66 5.36 83.65-10.11-78.8 29.75 1.93 5.05 78.79-29.75-69.35 47.66 3.08 4.45 69.35-47.67-55.88 62.81 4.06 3.58 55.88-62.8-39.16 74.3 4.8 2.5 39.16-74.3-20.16 81.47 5.26 1.3 20.17-81.47v83.9h5.42v-83.9l20.17 81.47 5.26-1.3-20.16-81.47 39.16 74.3 4.8-2.5-39.16-74.3 55.88 62.8 4.06-3.58-55.88-62.8 69.35 47.66 3.08-4.45-69.35-47.66 78.8 29.75 1.91-5.05-78.79-29.75 83.66 10.11.65-5.36-83.65-10.11 83.65-10.12-.66-5.36-83.65 10.12 78.8-29.76-1.93-5.05-78.79 29.76 69.35-47.67-3.08-4.44-69.35 47.66 55.88-62.8-4.06-3.59-55.88 62.81 39.16-74.3Z" fill="#fff"/></svg>