<svg viewBox="0 0 212 212" fill="none" xmlns="http://www.w3.org/2000/svg"><path d="M106 0c-1.46 0-2.9.03-4.35.09v70.32l-16.96-68.28c-2.86.58-5.68 1.27-8.45 2.08l16.95 68.27-32.89-62.22c-2.63 1.25-5.2 2.6-7.7 4.05l32.89 62.19-46.86-52.51a104.44 104.44 0 0 0-6.5 5.76l46.84 52.48-58.07-39.8a106.3 106.3 0 0 0-4.92 7.14l58.04 39.77-65.9-24.81a105.04 105.04 0 0 0-3.07 8.09l65.88 24.8-69.9-8.43c-.46 2.83-.8 5.7-1.03 8.59l69.89 8.42-69.89 8.42c.23 2.9.57 5.76 1.03 8.58l69.9-8.42-65.88 24.8c.91 2.75 1.94 5.45 3.07 8.1l65.9-24.82-58.04 39.77c1.54 2.45 3.18 4.83 4.92 7.13l58.07-39.79-46.83 52.48c2.08 2 4.24 3.93 6.49 5.76l46.85-52.5-32.87 62.18c2.5 1.45 5.06 2.8 7.69 4.05l32.9-62.22-16.96 68.27c2.77.8 5.6 1.5 8.45 2.08l16.96-68.28v70.32a108.37 108.37 0 0 0 8.7 0v-70.32l16.96 68.28c2.86-.58 5.68-1.27 8.45-2.08l-16.95-68.27 32.9 62.22c2.62-1.25 5.18-2.6 7.68-4.05l-32.87-62.19 46.86 52.5c2.24-1.82 4.4-3.75 6.49-5.75l-46.84-52.48 58.07 39.8c1.74-2.31 3.38-4.7 4.93-7.14l-58.05-39.77 65.9 24.81c1.13-2.64 2.16-5.34 3.07-8.09l-65.88-24.8 69.9 8.42c.46-2.82.8-5.68 1.03-8.58l-69.88-8.42 69.88-8.42c-.23-2.9-.57-5.76-1.03-8.59l-69.9 8.43 65.88-24.8c-.91-2.75-1.94-5.45-3.07-8.1l-65.9 24.82 58.05-39.77a106.03 106.03 0 0 0-4.93-7.13l-58.07 39.79 46.84-52.48c-2.09-2-4.25-3.93-6.5-5.76l-46.85 52.5 32.87-62.18c-2.5-1.45-5.06-2.8-7.69-4.05l-32.9 62.22 16.96-68.27c-2.77-.8-5.6-1.5-8.45-2.08l-16.96 68.28v-70.32c-1.44-.06-2.9-.09-4.35-.09Z" fill="#fff"/></svg>