<svg viewBox="0 0 132 30" fill="none" xmlns="http://www.w3.org/2000/svg"><path d="M111.75.02h20.25v4.6h-15.28v6.55h11.54v4.59h-11.54v9.35h15.28v4.57h-20.25v-29.66Zm-23.27-.02h4.95v25.09h13.18v4.59h-18.13v-29.68Zm-9.91 17.8 4.7 1.47c-1.82 6.3-7.71 10.4-14.37 10.4-8.38 0-15.08-6.53-15.08-14.82 0-8.2 6.56-14.85 15.1-14.85 6.55 0 12.43 4 14.35 10.42l-4.7 1.45a10.01 10.01 0 0 0-9.65-7.36c-5.69 0-9.97 4.5-9.97 10.34 0 5.58 4.11 10.34 9.97 10.34a9.9 9.9 0 0 0 9.65-7.38Zm-29.71-17.76h5.58l-10.36 18.01v11.63h-4.94v-11.63l-10.32-18h5.56l7.24 13.04 7.24-13.05Zm-24.13 17.76 4.72 1.47c-1.82 6.3-7.72 10.4-14.37 10.4-8.38 0-15.08-6.53-15.08-14.82 0-8.2 6.56-14.85 15.08-14.85 6.57 0 12.45 4 14.37 10.42l-4.72 1.45a10.01 10.01 0 0 0-9.65-7.36c-5.7 0-9.95 4.5-9.95 10.34 0 5.58 4.1 10.34 9.95 10.34a9.9 9.9 0 0 0 9.65-7.38Z" fill="#fff"/></svg>