<svg viewBox="0 0 132 31" fill="none" xmlns="http://www.w3.org/2000/svg"><path d="M115.07 0h4.99l11.94 30.04h-4.97l-2.05-5.09h-14.85l-2.03 5.1h-5l11.97-30.05Zm2.5 5.89-5.64 14.5h11.25l-5.62-14.5Zm-24.77 24.15v-30.04h5.03v30.04h-5.03Zm-20.51-4.54c5.61 0 10.03-4.55 10.03-10.46 0-5.6-4-10.47-10.03-10.47h-4.9v20.93h4.9Zm0-25.48c8.3 0 15.23 6.54 15.23 15.02 0 8.34-6.81 15-15.23 15h-9.91v-30.02h9.9Zm-35.71-.02h20.51v4.65h-15.48v6.64h11.69v4.65h-11.69v9.47h15.48v4.63h-20.5v-30.04Zm-7.94.02h2.66v30.02h-4.99v-21.01l-10.66 12.92-10.66-12.94v21.03h-4.99v-30.02h2.66l12.99 15.65 12.99-15.65Z" fill="#fff"/></svg>